<?xml version="1.0" encoding="utf-8"?>
<!-- Generated by IcoMoon.io -->
<svg version="1.1" xmlns="http://www.w3.org/2000/svg" xmlns:xlink="http://www.w3.org/1999/xlink" width="496" height="16" viewBox="0 0 496 16">
<svg >
    <symbol id="icon-star-yellow" width="16" height="16" viewBox="0 0 16 16">
        <path fill="#ffc531" stroke="#ffc531" stroke-linejoin="miter" stroke-linecap="butt" stroke-miterlimit="4" stroke-width="1.2" d="M6.2 5.197l1.8-3.411 1.8 3.411c0.159 0.302 0.449 0.512 0.785 0.571l3.8 0.658-2.688 2.766c-0.238 0.245-0.349 0.586-0.3 0.923l0.549 3.818-3.461-1.702c-0.306-0.151-0.665-0.151-0.971 0l-3.461 1.702 0.549-3.818c0.049-0.338-0.062-0.679-0.3-0.923l-2.688-2.766 3.8-0.658c0.336-0.058 0.626-0.269 0.785-0.571z"></path>
    </symbol>
</svg>
<svg >
    <symbol id="icon-heart-green" width="26" height="26" viewBox="0 0 16 16">
        <path fill="#54be96" stroke="#54be96" stroke-linejoin="round" stroke-linecap="round" stroke-miterlimit="4" stroke-width="1.2308" d="M13.893 3.073c-0.341-0.341-0.745-0.611-1.19-0.795s-0.922-0.279-1.404-0.279-0.959 0.095-1.404 0.279c-0.445 0.184-0.849 0.455-1.19 0.795l-0.707 0.707-0.707-0.707c-0.688-0.688-1.621-1.074-2.593-1.074s-1.906 0.386-2.593 1.074c-0.688 0.688-1.074 1.621-1.074 2.593s0.386 1.906 1.074 2.593l5.893 5.893 5.893-5.893c0.341-0.341 0.611-0.745 0.795-1.19s0.279-0.922 0.279-1.404-0.095-0.959-0.279-1.404c-0.184-0.445-0.455-0.849-0.795-1.19z"></path>
    </symbol>
</svg>
<svg >
  <symbol id="icon-x-close" width="16" height="16" viewBox="0 0 16 16">
    <path fill="none" stroke-linejoin="round" stroke-linecap="round" stroke-miterlimit="4" stroke-width="1.25" stroke="#000" d="M12 4l-8 8"></path>
    <path fill="none" stroke-linejoin="round" stroke-linecap="round" stroke-miterlimit="4" stroke-width="1.25" stroke="#000" d="M4 4l8 8"></path>
  </symbol>
</svg>
<svg >
    <symbol id="icon-eye-open" width="20" height="20" viewBox="0 0 16 16">
        <path fill="none" stroke-linejoin="round" stroke-linecap="round" stroke-miterlimit="4" stroke-width="1.6" stroke="#000" d="M0.667 8c0 0 2.667-5.333 7.333-5.333s7.333 5.333 7.333 5.333-2.667 5.333-7.333 5.333c-4.667 0-7.333-5.333-7.333-5.333z"></path>
        <path fill="none" stroke-linejoin="round" stroke-linecap="round" stroke-miterlimit="4" stroke-width="1.6" stroke="#000" d="M8 10c1.105 0 2-0.895 2-2s-0.895-2-2-2c-1.105 0-2 0.895-2 2s0.895 2 2 2z"></path>
    </symbol>
</svg>
<svg >
    <symbol id="icon-eye-off" width="20" height="20" viewBox="0 0 16 16" >
        <path fill="none" stroke-linejoin="round" stroke-linecap="round" stroke-miterlimit="4" stroke-width="1.6" stroke="#000" d="M11.96 11.96c-1.14 0.869-2.527 1.35-3.96 1.373-4.667 0-7.333-5.333-7.333-5.333 0.829-1.545 1.979-2.896 3.373-3.96M6.6 2.827c0.459-0.107 0.929-0.161 1.4-0.16 4.667 0 7.333 5.333 7.333 5.333-0.405 0.757-0.887 1.47-1.44 2.127M9.413 9.413c-0.183 0.196-0.404 0.354-0.649 0.463s-0.51 0.168-0.779 0.173c-0.269 0.005-0.535-0.045-0.784-0.145s-0.475-0.25-0.665-0.44c-0.19-0.19-0.34-0.416-0.44-0.665s-0.15-0.516-0.145-0.784c0.005-0.269 0.064-0.533 0.173-0.779s0.267-0.466 0.463-0.649"></path>
        <path fill="none" stroke-linejoin="round" stroke-linecap="round" stroke-miterlimit="4" stroke-width="1.6" stroke="#000" d="M0.667 0.667l14.667 14.667"></path>
    </symbol>
</svg>
<svg >
    <symbol id="icon-user" width="16" height="16" viewBox="0 0 16 16" >
        <path d="M8 2.667c0.707 0 1.386 0.281 1.886 0.781s0.781 1.178 0.781 1.886-0.281 1.386-0.781 1.886c-0.5 0.5-1.178 0.781-1.886 0.781s-1.386-0.281-1.886-0.781c-0.5-0.5-0.781-1.178-0.781-1.886s0.281-1.386 0.781-1.886c0.5-0.5 1.178-0.781 1.886-0.781zM8 9.333c2.947 0 5.333 1.193 5.333 2.667v1.333h-10.667v-1.333c0-1.473 2.387-2.667 5.333-2.667z"></path>
    </symbol>
</svg>
<svg >
    <symbol id="icon-letter-r" width="16" height="16" viewBox="0 0 16 16">
        <path d="M2.238 16v-15.515h5.53c1.202 0 2.2 0.207 2.992 0.621 0.798 0.414 1.394 0.987 1.788 1.72 0.394 0.727 0.591 1.568 0.591 2.523 0 0.95-0.199 1.785-0.598 2.508-0.394 0.717-0.99 1.275-1.788 1.674-0.793 0.399-1.79 0.598-2.992 0.598h-4.189v-2.015h3.977c0.758 0 1.374-0.109 1.848-0.326 0.48-0.217 0.831-0.533 1.053-0.947s0.333-0.912 0.333-1.492c0-0.586-0.114-1.093-0.341-1.523-0.222-0.429-0.573-0.758-1.053-0.985-0.475-0.232-1.098-0.348-1.871-0.348h-2.939v13.508h-2.341zM9.897 9l3.833 7h-2.667l-3.758-7h2.591z"></path>
    </symbol>
</svg>
<svg >
    <symbol id="icon-heart" width="26" height="26" viewBox="0 0 16 16" >
        <path fill="none" stroke-linejoin="round" stroke-linecap="round" stroke-miterlimit="4" stroke-width="1.2308" stroke="#000" d="M13.893 3.073c-0.341-0.341-0.745-0.611-1.19-0.795s-0.922-0.279-1.404-0.279-0.959 0.095-1.404 0.279c-0.445 0.184-0.849 0.455-1.19 0.795l-0.707 0.707-0.707-0.707c-0.688-0.688-1.621-1.074-2.593-1.074s-1.906 0.386-2.593 1.074c-0.688 0.688-1.074 1.621-1.074 2.593s0.386 1.906 1.074 2.593l5.893 5.893 5.893-5.893c0.341-0.341 0.611-0.745 0.795-1.19s0.279-0.922 0.279-1.404-0.095-0.959-0.279-1.404c-0.184-0.445-0.455-0.849-0.795-1.19z"></path>
    </symbol>
</svg>
</svg>
