<?xml version="1.0" encoding="utf-8"?>
<!-- Generated by IcoMoon.io -->
<svg xmlns="http://www.w3.org/2000/svg">
<symbol id="icon-heart">
<path fill="none" stroke-linejoin="round" stroke-linecap="round" stroke-miterlimit="4" stroke-width="1.8182" stroke="#000" d="M20.524 2.722c-0.503-0.503-1.1-0.902-1.758-1.175s-1.362-0.413-2.073-0.413-1.416 0.14-2.073 0.413c-0.657 0.272-1.255 0.672-1.758 1.175l-1.044 1.044-1.044-1.044c-1.016-1.016-2.394-1.587-3.831-1.587s-2.815 0.571-3.831 1.587c-1.016 1.016-1.587 2.394-1.587 3.831s0.571 2.815 1.587 3.831l8.706 8.706 8.706-8.706c0.503-0.503 0.902-1.1 1.175-1.758s0.413-1.362 0.413-2.073-0.14-1.416-0.413-2.073c-0.272-0.657-0.672-1.255-1.175-1.758z"></path>
</symbol>
<symbol id="icon-open-eye">
<path fill="none" stroke-linejoin="round" stroke-linecap="round" stroke-miterlimit="4" stroke-width="2" stroke="#000" d="M0.833 10c0 0 3.333-6.667 9.167-6.667s9.167 6.667 9.167 6.667-3.333 6.667-9.167 6.667c-5.833 0-9.167-6.667-9.167-6.667z"></path>
<path fill="none" stroke-linejoin="round" stroke-linecap="round" stroke-miterlimit="4" stroke-width="2" stroke="#000" d="M10 12.5c1.381 0 2.5-1.119 2.5-2.5s-1.119-2.5-2.5-2.5c-1.381 0-2.5 1.119-2.5 2.5s1.119 2.5 2.5 2.5z"></path>
</symbol>
<symbol id="icon-close-eye">
<path fill="none" stroke-linejoin="round" stroke-linecap="round" stroke-miterlimit="4" stroke-width="2" stroke="#000" d="M14.95 14.95c-1.424 1.086-3.159 1.687-4.95 1.717-5.833 0-9.167-6.667-9.167-6.667 1.037-1.932 2.474-3.619 4.217-4.95M8.25 3.533c0.574-0.134 1.161-0.201 1.75-0.2 5.833 0 9.167 6.667 9.167 6.667-0.506 0.946-1.109 1.837-1.8 2.658M11.767 11.767c-0.229 0.246-0.505 0.443-0.812 0.579s-0.638 0.21-0.973 0.216c-0.336 0.006-0.669-0.056-0.98-0.182s-0.594-0.313-0.831-0.55c-0.237-0.237-0.425-0.52-0.55-0.831s-0.187-0.645-0.182-0.98c0.006-0.336 0.079-0.667 0.216-0.973s0.334-0.583 0.579-0.812"></path>
<path fill="none" stroke-linejoin="round" stroke-linecap="round" stroke-miterlimit="4" stroke-width="2" stroke="#000" d="M0.833 0.833l18.333 18.333"></path>
</symbol>
<symbol id="icon-user">
<path d="M10 3.333c0.884 0 1.732 0.351 2.357 0.976s0.976 1.473 0.976 2.357-0.351 1.732-0.976 2.357c-0.625 0.625-1.473 0.976-2.357 0.976s-1.732-0.351-2.357-0.976c-0.625-0.625-0.976-1.473-0.976-2.357s0.351-1.732 0.976-2.357c0.625-0.625 1.473-0.976 2.357-0.976zM10 11.667c3.683 0 6.667 1.492 6.667 3.333v1.667h-13.333v-1.667c0-1.842 2.983-3.333 6.667-3.333z"></path>
</symbol>
<symbol id="icon-letter-r">
<path d="M2.797 20v-19.394h6.913c1.503 0 2.749 0.259 3.741 0.777 0.997 0.518 1.742 1.234 2.235 2.15 0.492 0.909 0.739 1.96 0.739 3.153 0 1.187-0.249 2.232-0.748 3.134-0.492 0.896-1.237 1.594-2.235 2.093-0.991 0.499-2.238 0.748-3.741 0.748h-5.237v-2.519h4.972c0.947 0 1.717-0.136 2.311-0.407 0.6-0.271 1.039-0.666 1.316-1.184s0.417-1.14 0.417-1.866c0-0.732-0.142-1.367-0.426-1.903-0.278-0.537-0.717-0.947-1.316-1.231-0.593-0.29-1.373-0.436-2.339-0.436h-3.674v16.884h-2.926zM12.371 11.25l4.792 8.75h-3.333l-4.697-8.75h3.239z"></path>
</symbol>
<symbol id="icon-image-user">
<path d="M5 0h10c2.761 0 5 2.239 5 5v10c0 2.761-2.239 5-5 5h-10c-2.761 0-5-2.239-5-5v-10c0-2.761 2.239-5 5-5z"></path>
<path d="M10 6c0.53 0 1.039 0.211 1.414 0.586s0.586 0.884 0.586 1.414-0.211 1.039-0.586 1.414c-0.375 0.375-0.884 0.586-1.414 0.586s-1.039-0.211-1.414-0.586c-0.375-0.375-0.586-0.884-0.586-1.414s0.211-1.039 0.586-1.414c0.375-0.375 0.884-0.586 1.414-0.586zM10 11c2.21 0 4 0.895 4 2v1h-8v-1c0-1.105 1.79-2 4-2z"></path>
</symbol>
<symbol id="icon-heart-green">
<path stroke-linejoin="round" stroke-linecap="round" stroke-miterlimit="4" stroke-width="1.5385" stroke="#000" fill="#000" d="M17.367 3.842c-0.426-0.426-0.931-0.764-1.487-0.994s-1.152-0.349-1.754-0.349-1.198 0.119-1.754 0.349c-0.556 0.23-1.062 0.568-1.487 0.994l-0.883 0.883-0.883-0.883c-0.86-0.86-2.026-1.343-3.242-1.343s-2.382 0.483-3.242 1.343c-0.86 0.86-1.343 2.026-1.343 3.242s0.483 2.382 1.343 3.242l7.367 7.367 7.367-7.367c0.426-0.426 0.764-0.931 0.994-1.487s0.349-1.152 0.349-1.754-0.119-1.198-0.349-1.754c-0.231-0.556-0.568-1.062-0.994-1.487z"></path>
</symbol>
<symbol id="icon-star">
<path fill="#ffc531" style="fill: var(--color1, #ffc531); stroke: var(--color1, #ffc531)" stroke="#ffc531" stroke-linejoin="miter" stroke-linecap="butt" stroke-miterlimit="4" stroke-width="1.6" d="M8.267 6.263l2.4-4.548 2.4 4.548c0.212 0.402 0.599 0.683 1.047 0.761l5.067 0.877-3.584 3.688c-0.317 0.326-0.465 0.781-0.4 1.231l0.732 5.090-4.615-2.269c-0.408-0.201-0.886-0.201-1.294 0l-4.615 2.269 0.732-5.090c0.065-0.45-0.083-0.905-0.4-1.231l-3.584-3.688 5.067-0.877c0.448-0.078 0.835-0.359 1.047-0.761z"></path>
</symbol>
</svg>
